<mxfile host="Electron" modified="2024-06-11T22:32:15.453Z" agent="Mozilla/5.0 (Macintosh; Intel Mac OS X 10_15_7) AppleWebKit/537.36 (KHTML, like Gecko) draw.io/24.4.13 Chrome/124.0.6367.207 Electron/30.0.6 Safari/537.36" etag="MkqLlaUP-p09gaVUm8Ow" version="24.4.13" type="device">
  <diagram name="ページ1" id="bcGYa-IFwR71Z6PvI6h9">
    <mxGraphModel dx="699" dy="606" grid="1" gridSize="10" guides="1" tooltips="1" connect="1" arrows="1" fold="1" page="1" pageScale="1" pageWidth="1169" pageHeight="827" math="0" shadow="0">
      <root>
        <mxCell id="0" />
        <mxCell id="1" parent="0" />
        <mxCell id="-rz0FR5cOj6GKXD2IB-p-1" value="DB column flexible (NoSQL)&lt;div&gt;Graph common type and user-configurable&lt;/div&gt;&lt;div&gt;&lt;br&gt;&lt;/div&gt;&lt;div&gt;Nav items:&lt;/div&gt;&lt;div&gt;Main dashboard (all graph)&lt;/div&gt;&lt;div&gt;Graph subpages (subset of graphs)&lt;/div&gt;&lt;div&gt;Data input (spreadsheet like)&lt;/div&gt;&lt;div&gt;Admin page (user config and permission)&lt;/div&gt;" style="text;html=1;align=left;verticalAlign=middle;whiteSpace=wrap;rounded=0;" vertex="1" parent="1">
          <mxGeometry x="100" y="50" width="270" height="180" as="geometry" />
        </mxCell>
        <mxCell id="-rz0FR5cOj6GKXD2IB-p-8" style="edgeStyle=orthogonalEdgeStyle;rounded=0;orthogonalLoop=1;jettySize=auto;html=1;exitX=1;exitY=0.25;exitDx=0;exitDy=0;entryX=0;entryY=0.5;entryDx=0;entryDy=0;" edge="1" parent="1" source="-rz0FR5cOj6GKXD2IB-p-2" target="-rz0FR5cOj6GKXD2IB-p-5">
          <mxGeometry relative="1" as="geometry" />
        </mxCell>
        <mxCell id="-rz0FR5cOj6GKXD2IB-p-9" style="edgeStyle=orthogonalEdgeStyle;rounded=0;orthogonalLoop=1;jettySize=auto;html=1;exitX=1;exitY=0.75;exitDx=0;exitDy=0;entryX=0;entryY=0.5;entryDx=0;entryDy=0;" edge="1" parent="1" source="-rz0FR5cOj6GKXD2IB-p-2" target="-rz0FR5cOj6GKXD2IB-p-7">
          <mxGeometry relative="1" as="geometry" />
        </mxCell>
        <mxCell id="-rz0FR5cOj6GKXD2IB-p-2" value="nginx gateway" style="rounded=0;whiteSpace=wrap;html=1;" vertex="1" parent="1">
          <mxGeometry x="300" y="280" width="90" height="310" as="geometry" />
        </mxCell>
        <mxCell id="-rz0FR5cOj6GKXD2IB-p-22" style="edgeStyle=orthogonalEdgeStyle;rounded=0;orthogonalLoop=1;jettySize=auto;html=1;entryX=0;entryY=0.5;entryDx=0;entryDy=0;" edge="1" parent="1" source="-rz0FR5cOj6GKXD2IB-p-3" target="-rz0FR5cOj6GKXD2IB-p-2">
          <mxGeometry relative="1" as="geometry" />
        </mxCell>
        <mxCell id="-rz0FR5cOj6GKXD2IB-p-3" value="User" style="shape=umlActor;verticalLabelPosition=bottom;verticalAlign=top;html=1;outlineConnect=0;" vertex="1" parent="1">
          <mxGeometry x="120" y="344" width="30" height="60" as="geometry" />
        </mxCell>
        <mxCell id="-rz0FR5cOj6GKXD2IB-p-14" style="edgeStyle=orthogonalEdgeStyle;rounded=0;orthogonalLoop=1;jettySize=auto;html=1;exitX=0.5;exitY=1;exitDx=0;exitDy=0;entryX=0.5;entryY=0;entryDx=0;entryDy=0;" edge="1" parent="1" source="-rz0FR5cOj6GKXD2IB-p-5" target="-rz0FR5cOj6GKXD2IB-p-7">
          <mxGeometry relative="1" as="geometry" />
        </mxCell>
        <mxCell id="-rz0FR5cOj6GKXD2IB-p-15" value="authorization" style="edgeLabel;html=1;align=center;verticalAlign=middle;resizable=0;points=[];" vertex="1" connectable="0" parent="-rz0FR5cOj6GKXD2IB-p-14">
          <mxGeometry x="-0.2647" relative="1" as="geometry">
            <mxPoint y="11" as="offset" />
          </mxGeometry>
        </mxCell>
        <mxCell id="-rz0FR5cOj6GKXD2IB-p-5" value="Frontend service&lt;div&gt;Vite + Vue.js&lt;/div&gt;" style="rounded=0;whiteSpace=wrap;html=1;" vertex="1" parent="1">
          <mxGeometry x="580" y="260" width="120" height="60" as="geometry" />
        </mxCell>
        <mxCell id="-rz0FR5cOj6GKXD2IB-p-12" style="edgeStyle=orthogonalEdgeStyle;rounded=0;orthogonalLoop=1;jettySize=auto;html=1;exitX=1;exitY=0.5;exitDx=0;exitDy=0;entryX=0;entryY=0.5;entryDx=0;entryDy=0;" edge="1" parent="1" source="-rz0FR5cOj6GKXD2IB-p-7" target="-rz0FR5cOj6GKXD2IB-p-11">
          <mxGeometry relative="1" as="geometry" />
        </mxCell>
        <mxCell id="-rz0FR5cOj6GKXD2IB-p-23" style="edgeStyle=orthogonalEdgeStyle;rounded=0;orthogonalLoop=1;jettySize=auto;html=1;entryX=0;entryY=0.5;entryDx=0;entryDy=0;exitX=0.5;exitY=1;exitDx=0;exitDy=0;" edge="1" parent="1" source="-rz0FR5cOj6GKXD2IB-p-7" target="-rz0FR5cOj6GKXD2IB-p-24">
          <mxGeometry relative="1" as="geometry">
            <mxPoint x="640" y="780" as="targetPoint" />
          </mxGeometry>
        </mxCell>
        <mxCell id="-rz0FR5cOj6GKXD2IB-p-7" value="Backend service&lt;div&gt;(Go)&lt;/div&gt;" style="whiteSpace=wrap;html=1;" vertex="1" parent="1">
          <mxGeometry x="580" y="620" width="120" height="60" as="geometry" />
        </mxCell>
        <mxCell id="-rz0FR5cOj6GKXD2IB-p-10" value="DB&lt;div&gt;(MongoDB)&lt;/div&gt;" style="shape=cylinder3;whiteSpace=wrap;html=1;boundedLbl=1;backgroundOutline=1;size=15;" vertex="1" parent="1">
          <mxGeometry x="940" y="610" width="80" height="80" as="geometry" />
        </mxCell>
        <mxCell id="-rz0FR5cOj6GKXD2IB-p-11" value="Cache&lt;div&gt;(Redis / memcached?)&lt;/div&gt;" style="rounded=1;whiteSpace=wrap;html=1;strokeColor=default;dashed=1;" vertex="1" parent="1">
          <mxGeometry x="940" y="540" width="155" height="54" as="geometry" />
        </mxCell>
        <mxCell id="-rz0FR5cOj6GKXD2IB-p-13" style="edgeStyle=orthogonalEdgeStyle;rounded=0;orthogonalLoop=1;jettySize=auto;html=1;exitX=1;exitY=0.5;exitDx=0;exitDy=0;entryX=0;entryY=0.5;entryDx=0;entryDy=0;entryPerimeter=0;" edge="1" parent="1" source="-rz0FR5cOj6GKXD2IB-p-7" target="-rz0FR5cOj6GKXD2IB-p-10">
          <mxGeometry relative="1" as="geometry" />
        </mxCell>
        <mxCell id="-rz0FR5cOj6GKXD2IB-p-20" style="edgeStyle=orthogonalEdgeStyle;rounded=0;orthogonalLoop=1;jettySize=auto;html=1;exitX=0.5;exitY=0;exitDx=0;exitDy=0;exitPerimeter=0;entryX=1;entryY=0.5;entryDx=0;entryDy=0;" edge="1" parent="1" source="-rz0FR5cOj6GKXD2IB-p-16" target="-rz0FR5cOj6GKXD2IB-p-5">
          <mxGeometry relative="1" as="geometry" />
        </mxCell>
        <mxCell id="-rz0FR5cOj6GKXD2IB-p-21" value="SSR (graph pages)" style="edgeLabel;html=1;align=center;verticalAlign=middle;resizable=0;points=[];" vertex="1" connectable="0" parent="-rz0FR5cOj6GKXD2IB-p-20">
          <mxGeometry x="0.3511" y="1" relative="1" as="geometry">
            <mxPoint x="-3" y="-11" as="offset" />
          </mxGeometry>
        </mxCell>
        <mxCell id="-rz0FR5cOj6GKXD2IB-p-16" value="metadata / view config" style="shape=cylinder3;whiteSpace=wrap;html=1;boundedLbl=1;backgroundOutline=1;size=15;" vertex="1" parent="1">
          <mxGeometry x="900" y="344" width="150" height="80" as="geometry" />
        </mxCell>
        <mxCell id="-rz0FR5cOj6GKXD2IB-p-19" style="edgeStyle=orthogonalEdgeStyle;rounded=0;orthogonalLoop=1;jettySize=auto;html=1;exitX=0.75;exitY=0;exitDx=0;exitDy=0;entryX=0.5;entryY=1;entryDx=0;entryDy=0;entryPerimeter=0;" edge="1" parent="1" source="-rz0FR5cOj6GKXD2IB-p-7" target="-rz0FR5cOj6GKXD2IB-p-16">
          <mxGeometry relative="1" as="geometry">
            <Array as="points">
              <mxPoint x="670" y="490" />
              <mxPoint x="975" y="490" />
            </Array>
          </mxGeometry>
        </mxCell>
        <mxCell id="-rz0FR5cOj6GKXD2IB-p-24" value="Permission store&lt;div&gt;(Redis)&lt;/div&gt;" style="rounded=1;whiteSpace=wrap;html=1;" vertex="1" parent="1">
          <mxGeometry x="940" y="730" width="80" height="80" as="geometry" />
        </mxCell>
      </root>
    </mxGraphModel>
  </diagram>
</mxfile>
